<svg xmlns="http://www.w3.org/2000/svg" width="32" height="32" viewBox="270 220 150 150">
  <!-- FusionMarkt Logo Symbol - Optimized Favicon -->
  <path d="M389.574 274.948C388.319 278.012 387.068 280.622 385.693 283.165C385.3 283.892 384.545 284.426 385.122 283.815C371.257 272.447 358.15 260.623 343.897 250.365C333.004 242.526 320.509 237.084 306.435 237.094C293.475 237.105 286.449 244.313 286.914 257.173C286.986 259.164 287.081 261.282 287.793 263.101C290.844 270.906 289.198 277.361 282.496 282.374C272.264 266.957 270.774 236.288 291.356 227.88C300.932 223.969 310.881 224.317 320.466 226.957C348.969 234.806 371.002 252.206 389.574 274.948Z" fill="#dd0000"/>
  <path d="M401.423 277.653C403.244 269.865 405.812 262.601 406.214 255.221C406.872 243.175 400.465 237.194 388.299 236.972C384.965 236.913 381.296 236.709 378.343 237.919C370.282 241.221 365.37 237.028 359.993 231.657C371.956 225.517 384.229 223.84 396.719 226.059C411.656 228.713 420.11 243.079 418.169 260.429C416.575 274.676 411.561 287.833 403.323 299.289C394.782 311.164 384.993 322.213 375.155 333.095C368.674 340.264 366.824 339.828 358.181 332.606C375.851 317.01 392.044 300.254 401.423 277.653Z" fill="#ffffff"/>
  <path d="M355.138 358.545C337.818 349.987 323.19 338.681 310.213 325.211C302.39 317.09 302.413 316.932 309.438 307.316C317.202 314.864 324.609 322.777 332.768 329.835C345.91 341.202 360.562 350.181 377.819 354.19C399.273 359.174 410.968 348.288 405.197 327.344C402.858 318.854 406.83 314.688 411.462 308.661C417.445 321.774 420.427 334.491 416.623 347.956C413.61 358.615 402.83 366.038 391.305 366.745C378.549 367.526 366.923 363.951 355.138 358.545Z" fill="#ffcc00"/>
  <path d="M300.575 354.733C305.577 354.657 310.113 354.89 314.465 354.108C324.928 352.226 324.893 352.034 333.802 360.343C319.344 366.487 305.097 370.221 290.307 363.369C278.372 357.841 273.225 344.33 275.772 329.038C278.508 312.614 285.597 298.085 295.49 284.996C302.185 276.136 309.901 267.997 317.554 259.901C325.032 251.994 325.886 252.162 335.051 258.709C328.204 265.839 321.078 272.789 314.493 280.212C301.146 295.257 290.316 311.718 287.217 332.093C285.482 343.508 289.953 351.257 300.575 354.733Z" fill="#ffffff"/>
  <!-- Center dot -->
  <path d="M347.648 285.472C354.811 285.472 360.618 291.265 360.618 298.412L360.618 298.473C360.618 305.619 354.811 311.412 347.648 311.412C340.484 311.412 334.678 305.619 334.678 298.473L334.678 298.412C334.678 291.265 340.484 285.472 347.648 285.472Z" fill="#ffffff"/>
</svg>
